<mxfile host="app.diagrams.net" modified="2022-09-04T04:29:02.927Z" agent="5.0 (Macintosh; Intel Mac OS X 10_15_7) AppleWebKit/537.36 (KHTML, like Gecko) Chrome/104.0.0.0 Safari/537.36" version="20.2.8" etag="7-ZFOFXSPnOaADZIohLI" type="github">
  <diagram id="RhyOFskJaoKihiSlYqbY" name="Page-1">
    <mxGraphModel dx="1186" dy="661" grid="0" gridSize="10" guides="1" tooltips="1" connect="1" arrows="1" fold="1" page="1" pageScale="1" pageWidth="850" pageHeight="1100" math="0" shadow="0">
      <root>
        <mxCell id="0" />
        <mxCell id="1" parent="0" />
        <mxCell id="zQNmWdlx2TpLJ7YEQnaV-2" value="&lt;span style=&quot;font-size: 22px;&quot;&gt;&lt;font&gt;&amp;lt;FeedLoader&amp;gt;&lt;/font&gt;&lt;br style=&quot;font-size: 22px;&quot;&gt;&lt;/span&gt;" style="rounded=0;whiteSpace=wrap;html=1;fillColor=#FFFFFF;strokeColor=#4C0099;fontColor=#4C0099;strokeWidth=3;fontSize=22;" vertex="1" parent="1">
          <mxGeometry x="305" y="470" width="200" height="50" as="geometry" />
        </mxCell>
        <mxCell id="zQNmWdlx2TpLJ7YEQnaV-21" style="edgeStyle=orthogonalEdgeStyle;rounded=0;orthogonalLoop=1;jettySize=auto;html=1;exitX=0.5;exitY=1;exitDx=0;exitDy=0;entryX=0;entryY=0.5;entryDx=0;entryDy=0;dashed=1;strokeColor=#3399FF;strokeWidth=3;fontSize=22;fontColor=#4C0099;endArrow=block;endFill=0;endSize=16;" edge="1" parent="1" source="zQNmWdlx2TpLJ7YEQnaV-3" target="zQNmWdlx2TpLJ7YEQnaV-2">
          <mxGeometry relative="1" as="geometry" />
        </mxCell>
        <mxCell id="zQNmWdlx2TpLJ7YEQnaV-3" value="&lt;font style=&quot;font-size: 22px;&quot;&gt;RemoteFeedLoader&lt;br style=&quot;font-size: 22px;&quot;&gt;&lt;/font&gt;" style="rounded=0;whiteSpace=wrap;html=1;fillColor=#FFFFFF;strokeColor=#3399FF;strokeWidth=3;fontColor=#3399FF;fontSize=22;" vertex="1" parent="1">
          <mxGeometry x="67.5" y="325" width="220" height="50" as="geometry" />
        </mxCell>
        <mxCell id="zQNmWdlx2TpLJ7YEQnaV-16" style="edgeStyle=orthogonalEdgeStyle;rounded=0;orthogonalLoop=1;jettySize=auto;html=1;exitX=0.25;exitY=1;exitDx=0;exitDy=0;entryX=0.5;entryY=0;entryDx=0;entryDy=0;strokeColor=#FFB570;strokeWidth=3;fontSize=22;fontColor=#FFB570;endArrow=classic;endFill=1;" edge="1" parent="1" source="zQNmWdlx2TpLJ7YEQnaV-6" target="zQNmWdlx2TpLJ7YEQnaV-3">
          <mxGeometry relative="1" as="geometry" />
        </mxCell>
        <mxCell id="zQNmWdlx2TpLJ7YEQnaV-17" style="edgeStyle=orthogonalEdgeStyle;rounded=0;orthogonalLoop=1;jettySize=auto;html=1;exitX=0.75;exitY=1;exitDx=0;exitDy=0;entryX=0.5;entryY=0;entryDx=0;entryDy=0;strokeColor=#FFB570;strokeWidth=3;fontSize=22;fontColor=#FFB570;endArrow=classic;endFill=1;" edge="1" parent="1" source="zQNmWdlx2TpLJ7YEQnaV-6" target="zQNmWdlx2TpLJ7YEQnaV-7">
          <mxGeometry relative="1" as="geometry" />
        </mxCell>
        <mxCell id="zQNmWdlx2TpLJ7YEQnaV-18" style="edgeStyle=orthogonalEdgeStyle;rounded=0;orthogonalLoop=1;jettySize=auto;html=1;exitX=0.5;exitY=1;exitDx=0;exitDy=0;strokeColor=#4C0099;strokeWidth=3;fontSize=22;fontColor=#4C0099;endArrow=block;endFill=0;dashed=1;endSize=16;" edge="1" parent="1" source="zQNmWdlx2TpLJ7YEQnaV-6">
          <mxGeometry relative="1" as="geometry">
            <mxPoint x="405" y="468.5" as="targetPoint" />
          </mxGeometry>
        </mxCell>
        <mxCell id="zQNmWdlx2TpLJ7YEQnaV-6" value="&lt;font style=&quot;font-size: 22px;&quot;&gt;Remote with local feedback loader&lt;br style=&quot;font-size: 22px;&quot;&gt;&lt;/font&gt;" style="rounded=0;whiteSpace=wrap;html=1;fillColor=#FFFFFF;strokeColor=#FFB570;strokeWidth=3;fontColor=#FFB570;fontSize=22;" vertex="1" parent="1">
          <mxGeometry x="205" y="152" width="400" height="55" as="geometry" />
        </mxCell>
        <mxCell id="zQNmWdlx2TpLJ7YEQnaV-20" style="edgeStyle=orthogonalEdgeStyle;rounded=0;orthogonalLoop=1;jettySize=auto;html=1;entryX=1;entryY=0.5;entryDx=0;entryDy=0;dashed=1;strokeColor=#FF3333;strokeWidth=3;fontSize=22;fontColor=#4C0099;endArrow=block;endFill=0;endSize=16;" edge="1" parent="1" source="zQNmWdlx2TpLJ7YEQnaV-7" target="zQNmWdlx2TpLJ7YEQnaV-2">
          <mxGeometry relative="1" as="geometry">
            <Array as="points">
              <mxPoint x="633" y="495" />
            </Array>
          </mxGeometry>
        </mxCell>
        <mxCell id="zQNmWdlx2TpLJ7YEQnaV-7" value="&lt;font style=&quot;font-size: 22px;&quot;&gt;LocalFeedLoader&lt;br style=&quot;font-size: 22px;&quot;&gt;&lt;/font&gt;" style="rounded=0;whiteSpace=wrap;html=1;fillColor=#f8cecc;strokeColor=#FF3333;strokeWidth=3;fontSize=22;fontColor=#FF3333;" vertex="1" parent="1">
          <mxGeometry x="522.5" y="325" width="220" height="50" as="geometry" />
        </mxCell>
        <mxCell id="zQNmWdlx2TpLJ7YEQnaV-12" style="edgeStyle=orthogonalEdgeStyle;rounded=0;orthogonalLoop=1;jettySize=auto;html=1;exitX=0.5;exitY=0;exitDx=0;exitDy=0;entryX=0.5;entryY=1;entryDx=0;entryDy=0;fontSize=22;fontColor=#00CC00;strokeWidth=3;strokeColor=#4C0099;" edge="1" parent="1" source="zQNmWdlx2TpLJ7YEQnaV-8" target="zQNmWdlx2TpLJ7YEQnaV-2">
          <mxGeometry relative="1" as="geometry" />
        </mxCell>
        <mxCell id="zQNmWdlx2TpLJ7YEQnaV-19" value="" style="edgeStyle=orthogonalEdgeStyle;rounded=0;orthogonalLoop=1;jettySize=auto;html=1;dashed=1;strokeColor=#FFB570;strokeWidth=3;fontSize=22;fontColor=#FFB570;endArrow=block;endFill=0;" edge="1" parent="1" source="zQNmWdlx2TpLJ7YEQnaV-8" target="zQNmWdlx2TpLJ7YEQnaV-9">
          <mxGeometry relative="1" as="geometry" />
        </mxCell>
        <mxCell id="zQNmWdlx2TpLJ7YEQnaV-8" value="&lt;span style=&quot;font-size: 22px;&quot;&gt;&lt;font&gt;FeedViewController&lt;/font&gt;&lt;br style=&quot;font-size: 22px;&quot;&gt;&lt;/span&gt;" style="rounded=0;whiteSpace=wrap;html=1;fillColor=#FFFFFF;strokeColor=#4C0099;fontColor=#4C0099;strokeWidth=3;fontSize=22;" vertex="1" parent="1">
          <mxGeometry x="305" y="591" width="200" height="50" as="geometry" />
        </mxCell>
        <mxCell id="zQNmWdlx2TpLJ7YEQnaV-9" value="&lt;span style=&quot;font-size: 22px;&quot;&gt;&lt;font&gt;UIViewController&lt;/font&gt;&lt;br style=&quot;font-size: 22px;&quot;&gt;&lt;/span&gt;" style="rounded=0;whiteSpace=wrap;html=1;fillColor=#d5e8d4;strokeColor=#00CC00;strokeWidth=3;fontSize=22;fontColor=#00CC00;" vertex="1" parent="1">
          <mxGeometry x="305" y="746" width="200" height="50" as="geometry" />
        </mxCell>
        <mxCell id="zQNmWdlx2TpLJ7YEQnaV-14" value="Extends" style="endArrow=block;endSize=16;endFill=0;html=1;rounded=0;strokeColor=#4C0099;strokeWidth=3;fontSize=22;fontColor=#4C0099;" edge="1" parent="1">
          <mxGeometry width="160" relative="1" as="geometry">
            <mxPoint x="405" y="641" as="sourcePoint" />
            <mxPoint x="405" y="742" as="targetPoint" />
          </mxGeometry>
        </mxCell>
      </root>
    </mxGraphModel>
  </diagram>
</mxfile>
